<?xml version="1.0" encoding="utf-8"?>
<svg version="1.1" xmlns="http://www.w3.org/2000/svg" xmlns:xlink="http://www.w3.org/1999/xlink" viewBox="0 0 840 675">
	<style>
  /* <![CDATA[ */
	rect, polygon {
	  fill: #a5a6a9;
		stroke: #0b3536;
	}
  /* ]]> */
	</style>

	<!-- row 1 -->
	<rect id="SH" x="510" y="0" width="100" height="100" />
	<!-- row 2 -->
	<rect id="JU" x="165" y="115" width="100" height="100" />

	<polygon id="BS" points="280,115 372.5,115 280,207.5" />
	<polygon id="BL" points="380,122.5 380,215 287.5,215" />

	<rect id="AG" x="395" y="115" width="100" height="100" />
	<rect id="ZH" x="510" y="115" width="100" height="100" />
	<rect id="TG" x="625" y="115" width="100" height="100" />
	<!-- row 2.5 -->
	<polygon id="AR" points="740,172.5 832.5,172.5 740,265" />
	<polygon id="AI" points="747.5,272.5 840,272.5 840,180" />
	<!-- row 3 -->
	<rect id="NE" x="165" y="230" width="100" height="100" />
	<rect id="SO" x="280" y="230" width="100" height="100" />
	<rect id="LU" x="395" y="230" width="100" height="100" />
	<rect id="ZG" x="510" y="230" width="100" height="100" />
	<rect id="SG" x="625" y="230" width="100" height="100" />
	<!-- row 4 -->
	<rect id="VD" x="50" y="345" width="100" height="100" />
	<rect id="FR" x="165" y="345" width="100" height="100" />
	<rect id="BE" x="280" y="345" width="100" height="100" />
	<polygon id="OW" points="395,345 487.5,345 395,437.5" />
	<polygon id="NW" points="402.5,445 495,352.5 495,445" />
	<rect id="SZ" x="510" y="345" width="100" height="100" />
	<rect id="GL" x="625" y="345" width="100" height="100" />
	<rect id="GR" x="740" y="345" width="100" height="100" />
	<!-- row 5 -->
	<rect id="GE" x="0" y="460" width="100" height="100" />
	<rect id="VS" x="222.5" y="460" width="100" height="100" />
	<rect id="UR" x="510" y="460" width="100" height="100" />
	<!-- row 6 -->
	<rect id="TI" x="510" y="575" width="100" height="100" />
</svg>
